<?xml version="1.0" standalone="no"?>
<!DOCTYPE svg PUBLIC "-//W3C//DTD SVG 20010904//EN"
 "http://www.w3.org/TR/2001/REC-SVG-20010904/DTD/svg10.dtd">
<svg version="1.0" xmlns="http://www.w3.org/2000/svg"
 width="632.000000pt" height="632.000000pt" viewBox="0 0 632.000000 632.000000"
 preserveAspectRatio="xMidYMid meet">
<metadata>
Created by potrace 1.14, written by Peter Selinger 2001-2017
</metadata>
<g transform="translate(0.000000,632.000000) scale(0.100000,-0.100000)"
fill="#000000" stroke="none">
<path d="M3010 6260 c-47 -32 -90 -64 -97 -69 -7 -6 -17 -11 -23 -11 -5 0 -10
-4 -10 -9 0 -5 -8 -11 -17 -15 -10 -3 -38 -21 -63 -39 -56 -42 -116 -84 -253
-178 -60 -41 -152 -104 -205 -141 -54 -36 -146 -101 -207 -142 -60 -42 -130
-90 -155 -107 -25 -17 -79 -55 -120 -83 -41 -28 -77 -53 -80 -56 -3 -3 -39
-27 -80 -55 -41 -27 -79 -54 -85 -58 -47 -36 -198 -137 -205 -137 -4 0 -10 -4
-12 -8 -3 -7 -222 -161 -266 -187 -9 -5 -19 -13 -22 -16 -3 -3 -48 -34 -100
-70 -52 -35 -97 -66 -100 -69 -3 -3 -41 -29 -85 -59 -127 -85 -200 -136 -205
-142 -3 -3 -16 -12 -29 -19 -29 -15 -43 -26 -82 -62 l-29 -26 0 -280 0 -280
325 0 326 0 -2 108 c-1 99 9 150 29 150 6 0 193 129 485 332 10 7 163 113 340
235 177 122 363 250 412 284 259 179 416 281 422 276 3 -4 6 -424 6 -934 l-1
-928 312 2 c171 0 317 1 324 2 9 1 12 195 12 936 0 514 3 935 6 935 7 0 64
-39 82 -57 7 -7 17 -13 22 -13 5 0 15 -6 22 -12 7 -7 54 -40 103 -73 50 -33
92 -62 95 -65 3 -3 61 -43 130 -90 69 -46 150 -102 180 -123 101 -69 164 -113
245 -167 44 -30 82 -57 85 -60 5 -5 44 -32 81 -55 36 -22 174 -119 179 -125 3
-3 23 -17 45 -30 22 -13 42 -27 45 -30 3 -3 70 -51 150 -105 80 -54 147 -103
148 -107 2 -4 9 -8 15 -8 7 -1 24 -11 39 -23 27 -22 28 -25 29 -144 l2 -122
316 0 316 1 -1 278 c-2 251 -4 281 -20 302 -10 13 -60 53 -112 88 -52 36 -100
69 -106 75 -6 5 -60 43 -121 84 -60 41 -112 77 -115 80 -3 3 -13 11 -22 16
-16 9 -140 95 -328 226 -41 29 -102 71 -135 93 -33 22 -64 44 -70 49 -5 4 -62
43 -125 87 -63 43 -120 83 -126 88 -5 5 -20 14 -31 21 -12 6 -28 17 -35 23 -8
7 -21 18 -31 23 -44 27 -192 131 -195 138 -2 4 -8 7 -13 7 -5 0 -17 7 -26 15
-40 32 -235 165 -244 165 -5 0 -9 3 -9 8 0 4 -28 25 -63 47 -34 22 -64 42 -67
46 -5 6 -112 80 -250 173 -41 28 -80 55 -87 61 -6 5 -73 52 -149 104 l-137 94
-22 -25 -22 -26 -24 24 -24 24 -85 -60z"/>
<path d="M645 3773 c-11 -1 -49 -4 -85 -5 l-65 -3 -1 -963 c0 -674 3 -969 10
-984 6 -12 45 -46 86 -74 41 -29 80 -57 85 -61 6 -4 46 -32 90 -62 44 -30 118
-81 165 -114 161 -111 221 -152 238 -162 9 -5 22 -15 29 -22 7 -6 29 -21 50
-34 21 -13 40 -26 43 -29 3 -4 41 -31 85 -60 44 -29 82 -56 85 -59 3 -3 13
-10 22 -16 25 -15 202 -138 208 -144 3 -3 13 -10 22 -16 9 -5 45 -30 80 -54
35 -24 83 -58 108 -75 25 -17 47 -33 50 -36 3 -3 39 -28 80 -55 41 -27 77 -52
80 -55 3 -3 25 -18 49 -34 25 -16 50 -33 55 -38 6 -5 106 -74 221 -154 116
-80 218 -151 228 -159 9 -8 21 -15 25 -15 5 0 17 -8 28 -18 11 -10 33 -27 49
-38 17 -10 99 -67 184 -126 85 -60 160 -108 167 -108 8 0 19 9 26 20 12 19 13
19 35 -2 20 -19 26 -20 48 -8 13 7 33 20 43 29 10 9 25 21 35 26 31 19 361
246 382 263 6 4 53 37 105 72 52 36 99 69 105 73 5 4 57 40 116 80 240 164
1002 690 1035 714 5 4 17 13 26 18 9 6 45 30 80 54 34 24 77 54 93 65 17 12
32 24 33 29 2 4 8 7 13 7 7 0 182 121 250 173 26 20 70 51 167 117 51 34 97
71 103 82 10 19 16 1944 6 1954 -7 8 -618 10 -629 3 -7 -5 -10 -267 -10 -817
l0 -811 -23 -19 c-13 -11 -33 -26 -45 -32 -12 -6 -33 -21 -47 -33 -13 -12 -26
-21 -29 -19 -2 1 -12 -5 -21 -14 -14 -12 -235 -165 -357 -247 -10 -6 -35 -23
-55 -37 -20 -14 -92 -64 -161 -111 -69 -47 -249 -171 -400 -275 -151 -104
-309 -211 -350 -239 -41 -27 -79 -53 -85 -58 -83 -62 -106 -77 -117 -77 -11 0
-14 194 -13 1141 0 750 -3 1143 -10 1147 -14 9 -597 10 -621 2 -19 -7 -19 -31
-18 -1149 0 -627 -1 -1141 -4 -1141 -6 0 -65 33 -79 45 -22 18 -39 30 -56 40
-9 6 -82 55 -163 110 -80 55 -153 105 -162 110 -9 6 -19 13 -22 16 -3 3 -48
34 -100 69 -52 35 -132 90 -177 122 -44 32 -86 58 -91 58 -6 0 -12 4 -14 8 -1
5 -39 33 -83 64 -44 30 -138 95 -210 145 -71 49 -175 120 -230 158 -235 161
-286 198 -296 217 -8 14 -11 260 -11 824 l1 804 -47 1 c-99 3 -418 4 -437 2z"/>
</g>
</svg>
